# xmcd
#
# Track frame offsets:
#	150
#	11943
#	27796
#	43745
#	64368
#	79371
#	93721
#	115559
#	137750
#
# Disc length: 2122 seconds
#
# Revision: 0
# Processed by: cddbd v1.5PL3 Copyright (c) Steve Scherf et al.
# Submitted via: dBpowerAMP V4.0
#
DISCID=7a084809
DTITLE=Attractions - All About Classics
DYEAR=1900
DGENRE=
TTITLE0=I Wanna Be
TTITLE1=In A Moment
TTITLE2=Kidnaper
TTITLE3=Daddy's Home
TTITLE4=Girl Why You'd Do Me Like That
TTITLE5=Moon River
TTITLE6=Fat Boy - I Do Love You
TTITLE7=Then You Can Tell Me Good Bye
TTITLE8=Summertime
EXTD=
EXTT0=
EXTT1=
EXTT2=
EXTT3=
EXTT4=
EXTT5=
EXTT6=
EXTT7=
EXTT8=
PLAYORDER=
